<?xml version="1.0" encoding="UTF-8"?>
<svg version="1.1" xmlns="http://www.w3.org/2000/svg" width="1920" height="1080">
<path d="M0 0 C633.6 0 1267.2 0 1920 0 C1920 356.4 1920 712.8 1920 1080 C1286.4 1080 652.8 1080 0 1080 C0 723.6 0 367.2 0 0 Z " fill="#FEFEFE" transform="translate(0,0)"/>
<path d="M0 0 C0.7601944 -0.0033284 1.52038879 -0.0066568 2.30361938 -0.01008606 C3.9157857 -0.01514449 5.52796247 -0.01749472 7.14013672 -0.01733398 C9.55845489 -0.01949277 11.97629543 -0.03758186 14.39453125 -0.05664062 C28.03661995 -0.11139007 40.50365785 0.36708293 52.7265625 7.04296875 C53.98726562 7.69458984 53.98726562 7.69458984 55.2734375 8.359375 C58.77585416 10.1931875 61.98064511 11.9793879 65.125 14.390625 C69.67971804 17.00069642 74.18674546 17.22306859 79.3515625 17.73046875 C81.41461024 17.96927293 83.47712612 18.21272026 85.5390625 18.4609375 C86.52261719 18.57872559 87.50617188 18.69651367 88.51953125 18.81787109 C95.03603305 19.66064378 101.0686231 20.48477602 106.3515625 24.60546875 C109.36308915 28.72122184 110.54494457 31.58037018 110.6640625 36.73046875 C110.70402344 37.68050781 110.74398438 38.63054688 110.78515625 39.609375 C110.2265625 42.16796875 110.2265625 42.16796875 108.13671875 43.953125 C103.72199277 45.79605088 99.33302233 45.94996889 94.6015625 46.34765625 C90.48664211 47.34781051 88.97894984 49.03221318 86.2265625 52.16796875 C82.28445466 54.13902267 77.52290349 53.62180759 73.2265625 53.16796875 C70.07086041 51.88253798 67.78680494 50.28845362 66.2265625 47.16796875 C42.4665625 47.16796875 18.7065625 47.16796875 -5.7734375 47.16796875 C-6.4334375 48.48796875 -7.0934375 49.80796875 -7.7734375 51.16796875 C-11.737428 54.5656749 -14.71005414 55.76978816 -19.8125 55.49609375 C-22.87756252 54.98321476 -25.17653613 53.83740534 -27.7734375 52.16796875 C-29.7734375 49.16796875 -29.7734375 49.16796875 -29.7734375 46.16796875 C-30.42828125 46.11898437 -31.083125 46.07 -31.7578125 46.01953125 C-36.95199235 45.59401934 -42.11616748 45.04769119 -47.2734375 44.29296875 C-48.253125 44.15117188 -49.2328125 44.009375 -50.2421875 43.86328125 C-53.05212709 43.09141513 -54.15612521 42.5831551 -55.7734375 40.16796875 C-56.1015625 37.72265625 -56.1015625 37.72265625 -56.0234375 35.04296875 C-56.00796875 34.15351562 -55.9925 33.2640625 -55.9765625 32.34765625 C-55.7734375 30.16796875 -55.7734375 30.16796875 -54.7734375 29.16796875 C-54.48794101 26.1317362 -54.32474936 23.0953909 -54.15234375 20.05078125 C-53.7734375 17.16796875 -53.7734375 17.16796875 -51.7734375 14.16796875 C-49.2265625 13.68359375 -49.2265625 13.68359375 -46.0234375 13.41796875 C-39.24285981 12.53679235 -34.25801145 10.12696818 -28.28125 6.91796875 C-22.98615897 4.27631977 -17.47801192 2.67943719 -11.7734375 1.16796875 C-10.9390918 0.90318726 -10.9390918 0.90318726 -10.08789062 0.63305664 C-6.73687551 -0.04032773 -3.40398598 0.00524011 0 0 Z " fill="#050505" transform="translate(1107.7734375,670.83203125)"/>
<path d="M0 0 C0.89772125 -0.00902847 1.7954425 -0.01805695 2.72036743 -0.02735901 C4.62181249 -0.04188197 6.52330775 -0.05075331 8.42480469 -0.05444336 C11.33354048 -0.06633259 14.24015027 -0.1154903 17.1484375 -0.16601562 C18.9947813 -0.17548041 20.84113814 -0.18271518 22.6875 -0.1875 C23.5574057 -0.20703232 24.4273114 -0.22656464 25.32357788 -0.24668884 C31.37157474 -0.20153667 31.37157474 -0.20153667 34.47802734 2.73876953 C35.96356261 5.34825816 37.17653748 7.87102673 38.2265625 10.68359375 C38.56171875 11.56660156 38.896875 12.44960938 39.2421875 13.359375 C39.48453125 14.02324219 39.726875 14.68710937 39.9765625 15.37109375 C42.6165625 15.37109375 45.2565625 15.37109375 47.9765625 15.37109375 C47.7265625 17.24609375 47.7265625 17.24609375 46.9765625 19.37109375 C44.9140625 20.62109375 44.9140625 20.62109375 42.9765625 21.37109375 C43.64171875 21.83 44.306875 22.28890625 44.9921875 22.76171875 C48.01712019 26.73938614 47.17413064 30.3115123 46.7265625 35.12109375 C46.66082031 36.00925781 46.59507813 36.89742187 46.52734375 37.8125 C46.36262501 40.0009061 46.17845261 42.18585553 45.9765625 44.37109375 C46.3065625 44.37109375 46.6365625 44.37109375 46.9765625 44.37109375 C46.9765625 47.67109375 46.9765625 50.97109375 46.9765625 54.37109375 C43.3465625 54.37109375 39.7165625 54.37109375 35.9765625 54.37109375 C35.9765625 53.05109375 35.9765625 51.73109375 35.9765625 50.37109375 C34.95298897 50.38774834 34.95298897 50.38774834 33.90873718 50.40473938 C26.82023174 50.51517291 19.73196972 50.59069489 12.64282227 50.64575195 C9.99558592 50.67092969 7.34841931 50.70507397 4.70141602 50.74829102 C0.90102966 50.80879539 -2.89843947 50.83727168 -6.69921875 50.859375 C-7.88679276 50.88518143 -9.07436676 50.91098785 -10.29792786 50.93757629 C-11.39884262 50.93795395 -12.49975739 50.9383316 -13.6340332 50.9387207 C-14.60444046 50.94982376 -15.57484772 50.96092682 -16.57466125 50.97236633 C-19.0234375 50.37109375 -19.0234375 50.37109375 -20.81462097 48.01261902 C-23.88614622 41.30067277 -24.80747066 32.68873662 -24.0234375 25.37109375 C-22.0234375 22.87109375 -22.0234375 22.87109375 -20.0234375 21.37109375 C-22.4984375 20.38109375 -22.4984375 20.38109375 -25.0234375 19.37109375 C-25.0234375 18.05109375 -25.0234375 16.73109375 -25.0234375 15.37109375 C-22.3834375 15.37109375 -19.7434375 15.37109375 -17.0234375 15.37109375 C-16.61351562 14.45585938 -16.20359375 13.540625 -15.78125 12.59765625 C-15.24242187 11.40914062 -14.70359375 10.220625 -14.1484375 8.99609375 C-13.61476563 7.81273437 -13.08109375 6.629375 -12.53125 5.41015625 C-9.53899093 -0.62087369 -6.15152609 0.0377466 0 0 Z " fill="#0E1010" transform="translate(1124.0234375,589.62890625)"/>
<path d="M0 0 C6.43431203 3.64714627 11.45613029 8.86795848 13.6875 16 C14.5341487 24.15145492 14.56773447 32.12392735 9.6875 39 C4.77025314 44.45057081 -0.62977981 48.40884809 -8.06640625 49.34765625 C-16.58162748 49.77178604 -23.04448403 47.85625933 -29.41796875 42.09765625 C-35.8627797 35.17446758 -36.79321429 28.71023811 -36.6171875 19.41015625 C-36.00907144 12.60393424 -33.41586828 8.78837089 -28.5 4.1875 C-20.00627081 -2.638653 -10.14974774 -4.57976422 0 0 Z " fill="#929292" transform="translate(867.3125,392)"/>
<path d="M0 0 C5.89739067 3.33330777 11.27954667 8.55253619 13.6875 15 C14.37108824 22.34459926 15.13207185 30.85950892 11.08203125 37.328125 C5.94136574 43.49116376 0.10824801 48.31567862 -8.06640625 49.34765625 C-15.4920769 49.71751724 -21.30616325 48.50215915 -27.3125 44 C-34.26222032 36.75372389 -36.74864951 31.25250938 -36.55859375 21.2578125 C-35.990046 13.73132325 -33.02163107 7.97285835 -27.3125 3 C-18.87336625 -2.95703559 -9.53334141 -4.25311438 0 0 Z " fill="#919191" transform="translate(788.3125,443)"/>
<path d="M0 0 C5.58929961 4.00027559 10.28114674 9.06277513 12.36328125 15.69140625 C13.4839443 24.03149865 12.28746908 30.81657397 7.36328125 37.69140625 C2.53142725 43.04890127 -2.86774535 47.11070934 -10.203125 48.00390625 C-18.2014833 48.35988325 -24.18786986 46.5131917 -30.38671875 41.44140625 C-37.15345644 33.17094908 -39.62172167 26.47171597 -38.63671875 15.69140625 C-36.99187616 10.22051676 -33.91287535 6.44608033 -29.63671875 2.69140625 C-28.43015625 1.60859375 -28.43015625 1.60859375 -27.19921875 0.50390625 C-18.90764054 -5.36086858 -8.63323103 -4.83295708 0 0 Z " fill="#919191" transform="translate(711.63671875,393.30859375)"/>
<path d="M0 0 C5.89739067 3.33330777 11.27954667 8.55253619 13.6875 15 C14.37108824 22.34459926 15.13207185 30.85950892 11.08203125 37.328125 C5.94136574 43.49116376 0.10824801 48.31567862 -8.06640625 49.34765625 C-15.4920769 49.71751724 -21.30616325 48.50215915 -27.3125 44 C-34.26222032 36.75372389 -36.74864951 31.25250938 -36.55859375 21.2578125 C-35.990046 13.73132325 -33.02163107 7.97285835 -27.3125 3 C-18.87336625 -2.95703559 -9.53334141 -4.25311438 0 0 Z " fill="#919191" transform="translate(788.3125,341)"/>
<path d="M0 0 C5.85310393 3.37084698 10.42048189 8.63644568 12.5625 15.0625 C13.17698406 25.13058494 13.16147326 32.50323543 6.9375 40.75 C2.42955964 45.63176956 -2.26508769 47.71000974 -8.84765625 48.44140625 C-17.23611246 48.71952619 -23.11613304 48.01646329 -29.3671875 42.296875 C-34.8962352 36.46957991 -37.53331136 30.97905609 -37.75 22.9375 C-37.48929414 15.52438552 -35.10864495 9.73364495 -29.796875 4.421875 C-21.45402715 -3.05041482 -10.43393476 -4.64086055 0 0 Z " fill="#919191" transform="translate(1159.4375,417.9375)"/>
<path d="M0 0 C12.87 0 25.74 0 39 0 C45 14 45 14 45 17 C27.84 17 10.68 17 -7 17 C-4.69 11.39 -2.38 5.78 0 0 Z " fill="#F9F9F9" transform="translate(1116,593)"/>
<path d="M0 0 C0 3.3 0 6.6 0 10 C6.6 10 13.2 10 20 10 C20 13.63 20 17.26 20 21 C13.4 21 6.8 21 0 21 C0 24.3 0 27.6 0 31 C-7.24358057 26.29167263 -14.12968548 21.23120395 -21 16 C-17.18959517 12.02992106 -13.14326168 8.5769885 -8.8125 5.1875 C-8.18408203 4.68541016 -7.55566406 4.18332031 -6.90820312 3.66601562 C-2.24463223 0 -2.24463223 0 0 0 Z " fill="#959595" transform="translate(700,637)"/>
<path d="M0 0 C3.22388237 1.37478252 4.9130373 2.81096689 6.98046875 5.625 C7.50447266 6.33140625 8.02847656 7.0378125 8.56835938 7.765625 C9.10267578 8.50296875 9.63699219 9.2403125 10.1875 10 C10.73341797 10.73734375 11.27933594 11.4746875 11.84179688 12.234375 C15.81569739 17.63139479 15.81569739 17.63139479 17 20 C13.7 20 10.4 20 7 20 C7 26.93 7 33.86 7 41 C3.37 41 -0.26 41 -4 41 C-4 34.07 -4 27.14 -4 20 C-7.3 20 -10.6 20 -14 20 C-9.52906813 13.1818289 -4.83462705 6.56478546 0 0 Z " fill="#949494" transform="translate(776,576)"/>
<path d="M0 0 C3.63 0 7.26 0 11 0 C11 6.93 11 13.86 11 21 C13.97 21 16.94 21 20 21 C17.75086189 25.49827622 15.00486932 29.23878293 12 33.25 C11.18015625 34.36761719 11.18015625 34.36761719 10.34375 35.5078125 C9.8178125 36.21164062 9.291875 36.91546875 8.75 37.640625 C8.27046875 38.28547852 7.7909375 38.93033203 7.296875 39.59472656 C6.86890625 40.0584668 6.4409375 40.52220703 6 41 C5.34 41 4.68 41 4 41 C2.48779297 39.27172852 2.48779297 39.27172852 0.7421875 36.87890625 C0.11699219 36.02619141 -0.50820313 35.17347656 -1.15234375 34.29492188 C-1.80332031 33.39322266 -2.45429687 32.49152344 -3.125 31.5625 C-4.11306641 30.21575195 -4.11306641 30.21575195 -5.12109375 28.84179688 C-10 22.14971532 -10 22.14971532 -10 21 C-6.7 21 -3.4 21 0 21 C0 14.07 0 7.14 0 0 Z " fill="#949494" transform="translate(772,700)"/>
<path d="M0 0 C6.8181711 4.47093187 13.43521454 9.16537295 20 14 C18.62399097 17.22284944 17.1756725 18.93046296 14.375 21.015625 C13.66859375 21.54414062 12.9621875 22.07265625 12.234375 22.6171875 C11.49703125 23.15601563 10.7596875 23.69484375 10 24.25 C9.26265625 24.80429687 8.5253125 25.35859375 7.765625 25.9296875 C2.27170567 30 2.27170567 30 0 30 C0 27.03 0 24.06 0 21 C-6.93 21 -13.86 21 -21 21 C-21 17.37 -21 13.74 -21 10 C-14.07 10 -7.14 10 0 10 C0 6.7 0 3.4 0 0 Z " fill="#949494" transform="translate(855,637)"/>
<path d="M0 0 C11.96885842 -0.67535878 19.90105488 1.85281602 30 8 C30 8.66 30 9.32 30 10 C29.01 10.495 29.01 10.495 28 11 C27.67 11.99 27.34 12.98 27 14 C19.74 14 12.48 14 5 14 C0.5 3.875 0.5 3.875 0 0 Z " fill="#F9F9F9" transform="translate(1129,674)"/>
<path d="M0 0 C1.34911472 4.89054085 2.11704968 8.89370776 2 14 C-13.87650086 14.20068611 -13.87650086 14.20068611 -20 13 C-21.26237731 10.47524538 -21.09856404 8.68799534 -21.0625 5.875 C-21.05347656 4.96492187 -21.04445313 4.05484375 -21.03515625 3.1171875 C-21.02355469 2.41851563 -21.01195312 1.71984375 -21 1 C-13.96094956 0.06145994 -7.09727428 -0.10808032 0 0 Z " fill="#F7F7F7" transform="translate(1124,673)"/>
<path d="M0 0 C8.25 0 16.5 0 25 0 C25 7.875 25 7.875 23 12 C19.70840684 12.05790353 16.41694397 12.09356261 13.125 12.125 C11.71927734 12.15013672 11.71927734 12.15013672 10.28515625 12.17578125 C9.38925781 12.18222656 8.49335937 12.18867187 7.5703125 12.1953125 C6.74289551 12.20578613 5.91547852 12.21625977 5.06298828 12.22705078 C3 12 3 12 1 10 C0.67 6.7 0.34 3.4 0 0 Z " fill="#B6B6B6" transform="translate(1123,618)"/>
<path d="M0 0 C3.00808769 2.63207673 3.88934188 4.09629201 4.375 8.0625 C4.0066092 10.94822797 3.68261422 12.6443401 2 15 C-1.43000646 17.54074553 -4.85891777 17.44368738 -9 17 C-12.55093712 14.19662859 -13.84597842 12.16616338 -14.4375 7.6875 C-14 4 -14 4 -11.5 1 C-7.72648094 -1.70048047 -4.25928306 -1.6402771 0 0 Z " fill="#F9F9F9" transform="translate(1095,705)"/>
<path d="M0 0 C2.96045738 2.59040021 3.85478339 4.12870035 4.5 8 C3.88466097 11.69203416 2.58383614 13.34016868 0 16 C-2.7798816 17.3899408 -4.9186326 17.18488204 -8 17 C-10.55040714 16.14986429 -11.65294576 15.46852322 -13.25 13.3125 C-14.34681286 9.93066036 -14.49623345 7.5356633 -14 4 C-9.87647498 -0.94823003 -6.1656171 -2.3744185 0 0 Z " fill="#F8F8F8" transform="translate(1192,704)"/>
<path d="M0 0 C1.32 0.33 2.64 0.66 4 1 C4 2.98 4 4.96 4 7 C4.66 7 5.32 7 6 7 C6.33 4.69 6.66 2.38 7 0 C9.375 0.25 9.375 0.25 12 1 C13.3125 3.0625 13.3125 3.0625 14 5 C14.33 3.35 14.66 1.7 15 0 C16.32 0 17.64 0 19 0 C18.03644647 10.55808656 18.03644647 10.55808656 17 15 C15.35 15 13.7 15 12 15 C11.01 12.36 10.02 9.72 9 7 C8.34 9.64 7.68 12.28 7 15 C5.35 15 3.7 15 2 15 C0.73694665 9.92523206 -0.27036084 5.27203646 0 0 Z " fill="#0E0E0E" transform="translate(768,357)"/>
<path d="M0 0 C2.375 1.5625 2.375 1.5625 4 4 C4.56783945 7.97487617 4.62340519 10.06489221 2.375 13.4375 C-0.75683492 15.49791771 -2.31544773 15.6767545 -6 15 C-8.9375 12.9375 -8.9375 12.9375 -11 10 C-11.06641554 6.14789873 -10.87229157 4.00151995 -8.3125 1.0625 C-5.26397123 -0.33817538 -3.32073048 -0.4842732 0 0 Z " fill="#101010" transform="translate(774,526)"/>
<path d="M0 0 C1.65 0 3.3 0 5 0 C5.66 2.31 6.32 4.62 7 7 C7.99 4.69 8.98 2.38 10 0 C11.65 0 13.3 0 15 0 C15.33776684 1.7491497 15.67003671 3.49936145 16 5.25 C16.185625 6.22453125 16.37125 7.1990625 16.5625 8.203125 C17 11 17 11 17 15 C15.68 15 14.36 15 13 15 C12.67 13.02 12.34 11.04 12 9 C11.67 9 11.34 9 11 9 C10.34 10.98 9.68 12.96 9 15 C7.68 15 6.36 15 5 15 C4.67 12.36 4.34 9.72 4 7 C3.34 7 2.68 7 2 7 C1.67 9.64 1.34 12.28 1 15 C0.01 15 -0.98 15 -2 15 C-2.22577402 9.5814234 -1.46670113 5.22512279 0 0 Z " fill="#151515" transform="translate(738,526)"/>
<path d="M0 0 C1.32 0 2.64 0 4 0 C4.33 2.31 4.66 4.62 5 7 C5.99 4.69 6.98 2.38 8 0 C9.32 0 10.64 0 12 0 C12.33 2.31 12.66 4.62 13 7 C13.66 7 14.32 7 15 7 C15 5.02 15 3.04 15 1 C16.32 0.67 17.64 0.34 19 0 C18.85816304 1.75032844 18.71136571 3.50025534 18.5625 5.25 C18.48128906 6.22453125 18.40007812 7.1990625 18.31640625 8.203125 C18.04925416 10.56461753 17.64628032 12.71901065 17 15 C15.35 14.67 13.7 14.34 12 14 C11.34 11.69 10.68 9.38 10 7 C9.01 9.64 8.02 12.28 7 15 C5.35 15 3.7 15 2 15 C1.66048381 13.43883181 1.32867456 11.87598662 1 10.3125 C0.814375 9.44238281 0.62875 8.57226562 0.4375 7.67578125 C0.01027953 5.06287036 -0.07616201 2.64186962 0 0 Z " fill="#161616" transform="translate(1223,526)"/>
<path d="M0 0 C7.22891566 -0.48192771 7.22891566 -0.48192771 10.5 1.5625 C12.60020266 4.97532932 12.63210717 7.06688873 12 11 C9.9375 13.4375 9.9375 13.4375 7 15 C4.69 15 2.38 15 0 15 C0 10.05 0 5.1 0 0 Z " fill="#0D0D0D" transform="translate(850,408)"/>
<path d="M0 0 C3.47914941 -0.02887814 6.95826831 -0.04675687 10.4375 -0.0625 C11.92733398 -0.07506836 11.92733398 -0.07506836 13.44726562 -0.08789062 C14.39150391 -0.09111328 15.33574219 -0.09433594 16.30859375 -0.09765625 C17.62041626 -0.10551147 17.62041626 -0.10551147 18.95874023 -0.11352539 C21 0 21 0 22 1 C22.04063832 2.66617115 22.042721 4.33388095 22 6 C19.66836164 7.16581918 18.27846518 7.12905609 15.68359375 7.1328125 C14.41418945 7.13474609 14.41418945 7.13474609 13.11914062 7.13671875 C12.23419922 7.13285156 11.34925781 7.12898437 10.4375 7.125 C9.54869141 7.12886719 8.65988281 7.13273438 7.74414062 7.13671875 C6.89916016 7.13542969 6.05417969 7.13414062 5.18359375 7.1328125 C4.01654907 7.13112061 4.01654907 7.13112061 2.82592773 7.12939453 C1 7 1 7 0 6 C-0.04080783 4.00041636 -0.04254356 1.99954746 0 0 Z " fill="#F2F2F2" transform="translate(1125,632)"/>
<path d="M0 0 C7.59 0 15.18 0 23 0 C22.67 1.98 22.34 3.96 22 6 C15.07 6 8.14 6 1 6 C0.67 4.02 0.34 2.04 0 0 Z " fill="#454646" transform="translate(1124,619)"/>
<path d="M0 0 C0.33 0 0.66 0 1 0 C1 3.3 1 6.6 1 10 C-2.63 10 -6.26 10 -10 10 C-10 8.68 -10 7.36 -10 6 C-28.15 6 -46.3 6 -65 6 C-65 5.67 -65 5.34 -65 5 C-48.9289259 3.88478296 -32.88153497 3.92798178 -16.78149414 4.03710938 C-15.45410469 4.04345398 -15.45410469 4.04345398 -14.09989929 4.04992676 C-12.41799742 4.05813451 -10.73610934 4.07055725 -9.05427551 4.08776855 C-5.76915772 4.10199469 -3.13998455 4.04666152 0 3 C0 2.01 0 1.02 0 0 Z " fill="#828383" transform="translate(1170,634)"/>
<path d="M0 0 C1.32 0 2.64 0 4 0 C5.32 2.64 6.64 5.28 8 8 C8.33 5.36 8.66 2.72 9 0 C9.99 0 10.98 0 12 0 C12 4.95 12 9.9 12 15 C10.68 15 9.36 15 8 15 C6.68 12.36 5.36 9.72 4 7 C3.67 9.64 3.34 12.28 3 15 C2.01 15 1.02 15 0 15 C0 10.05 0 5.1 0 0 Z " fill="#080808" transform="translate(1096,526)"/>
<path d="M0 0 C2.4375 2.5 2.4375 2.5 4 5 C0.7 4.67 -2.6 4.34 -6 4 C-7.00217064 7.58327753 -7.00217064 7.58327753 -6 11 C-4.35 11 -2.7 11 -1 11 C-0.67 10.34 -0.34 9.68 0 9 C-0.99 9 -1.98 9 -3 9 C-3 8.34 -3 7.68 -3 7 C-0.69 7 1.62 7 4 7 C3.64987213 9.59094622 3.26229035 11.5774211 1.875 13.8125 C-1.18711929 15.75184222 -3.47895874 15.49418123 -7 15 C-9.96135546 12.41830549 -10.86756104 10.81118865 -11.5 6.9375 C-11 4 -11 4 -9.4375 1.625 C-6.04129157 -0.63913895 -3.99900698 -0.64269755 0 0 Z " fill="#0D0D0D" transform="translate(1128,526)"/>
<path d="M0 0 C0.99 0 1.98 0 3 0 C3 1.98 3 3.96 3 6 C4.65 6 6.3 6 8 6 C8 4.02 8 2.04 8 0 C9.32 0 10.64 0 12 0 C12 4.95 12 9.9 12 15 C10.68 15 9.36 15 8 15 C8 13.02 8 11.04 8 9 C6.35 9 4.7 9 3 9 C3 10.98 3 12.96 3 15 C2.01 15 1.02 15 0 15 C0 10.05 0 5.1 0 0 Z " fill="#0F0F0F" transform="translate(1053,526)"/>
<path d="M0 0 C7.37042925 -0.36248013 7.37042925 -0.36248013 10.0625 1.1875 C11 3 11 3 10.8125 5.5625 C10 8 10 8 8 10 C6.68 10 5.36 10 4 10 C4 11.65 4 13.3 4 15 C2.68 15 1.36 15 0 15 C0 10.05 0 5.1 0 0 Z " fill="#222222" transform="translate(1142,433)"/>
<path d="M0 0 C1.828125 0.05859375 1.828125 0.05859375 4 1 C5.12629629 3.39782551 5.97100667 5.55649314 6.75 8.0625 C6.97042969 8.72572266 7.19085937 9.38894531 7.41796875 10.07226562 C7.95997407 11.71006432 8.48192502 13.35447496 9 15 C7.68 15 6.36 15 5 15 C5 14.01 5 13.02 5 12 C2.69 12 0.38 12 -2 12 C-2 12.99 -2 13.98 -2 15 C-3.32 15 -4.64 15 -6 15 C-4.36041242 9.76727367 -2.61047965 4.84803364 0 0 Z " fill="#151515" transform="translate(697,408)"/>
<path d="M0 0 C0.99 0 1.98 0 3 0 C4.98 4.62 6.96 9.24 9 14 C7.68 14.33 6.36 14.66 5 15 C5 14.01 5 13.02 5 12 C2.69 12 0.38 12 -2 12 C-2 12.99 -2 13.98 -2 15 C-3.32 15 -4.64 15 -6 15 C-4.36041242 9.76727367 -2.61047965 4.84803364 0 0 Z " fill="#2F2F2F" transform="translate(1079,526)"/>
<path d="M0 0 C2.375 1.375 2.375 1.375 4 3 C4 3.66 4 4.32 4 5 C3.36191406 4.91621094 2.72382812 4.83242188 2.06640625 4.74609375 C1.24011719 4.64425781 0.41382813 4.54242187 -0.4375 4.4375 C-1.26121094 4.33308594 -2.08492187 4.22867188 -2.93359375 4.12109375 C-3.95646484 4.06115234 -3.95646484 4.06115234 -5 4 C-6.29633621 5.06645115 -6.29633621 5.06645115 -6.0625 7.5625 C-6.041875 8.366875 -6.02125 9.17125 -6 10 C-2.30458414 10.95024979 0.30458414 10.95024979 4 10 C2.25 13.875 2.25 13.875 0 15 C-4.03191305 15.53758841 -5.5619036 15.3075996 -8.9375 12.9375 C-11 10 -11 10 -11.0625 6.375 C-10 3 -10 3 -8.3125 1.0625 C-5.2941394 -0.32431433 -3.29029921 -0.4112874 0 0 Z " fill="#161616" transform="translate(1040,526)"/>
<path d="M0 0 C2.32590854 3.63423209 2.16265833 6.77088331 2 11 C-1.96 11 -5.92 11 -10 11 C-10.33 9.35 -10.66 7.7 -11 6 C-7.4912812 2.90407165 -4.50802601 1.25805377 0 0 Z " fill="#F7F7F7" transform="translate(1100,675)"/>
<path d="M0 0 C3 0.1875 3 0.1875 5 1.1875 C5 2.1775 5 3.1675 5 4.1875 C2.69 3.8575 0.38 3.5275 -2 3.1875 C-0.37633534 6.43482932 2.75387839 6.88905136 6 8.1875 C6.125 10.5625 6.125 10.5625 6 13.1875 C4 15.1875 4 15.1875 0.5625 15.5 C-3 15.1875 -3 15.1875 -4.9375 13.8125 C-6 12.1875 -6 12.1875 -6 10.1875 C-3.33333333 10.85416667 -0.66666667 11.52083333 2 12.1875 C2 11.5275 2 10.8675 2 10.1875 C-0.31 9.1975 -2.62 8.2075 -5 7.1875 C-5.125 4.8125 -5.125 4.8125 -5 2.1875 C-3 0.1875 -3 0.1875 0 0 Z " fill="#060606" transform="translate(777,458.8125)"/>
<path d="M0 0 C3.5625 0.1875 3.5625 0.1875 5.5625 2.1875 C5.896228 5.32454316 6.09099028 7.35304166 4.375 10.0625 C1.90742892 11.59409584 0.41730169 11.61572025 -2.4375 11.1875 C-4.3125 10.125 -4.3125 10.125 -5.4375 8.1875 C-4.89124449 0.26679515 -4.89124449 0.26679515 0 0 Z " fill="#F5F5F5" transform="translate(1157.4375,618.8125)"/>
<path d="M0 0 C1.7325 0.1546875 1.7325 0.1546875 3.5 0.3125 C5.65502531 3.54503796 5.96856135 4.56400923 5.5 8.3125 C4.3125 10.125 4.3125 10.125 2.5 11.3125 C-0.35480169 11.74072025 -1.84492892 11.71909584 -4.3125 10.1875 C-6.02849028 7.47804166 -5.833728 5.44954316 -5.5 2.3125 C-3.5 0.3125 -3.5 0.3125 0 0 Z " fill="#F6F6F6" transform="translate(1113.5,618.6875)"/>
<path d="M0 0 C2.97 0 5.94 0 9 0 C9 0.99 9 1.98 9 3 C7.02 3 5.04 3 3 3 C3 3.99 3 4.98 3 6 C4.65 6 6.3 6 8 6 C8 6.99 8 7.98 8 9 C6.35 9 4.7 9 3 9 C3 9.99 3 10.98 3 12 C4.98 12 6.96 12 9 12 C9 12.99 9 13.98 9 15 C6.03 15 3.06 15 0 15 C0 10.05 0 5.1 0 0 Z " fill="#080808" transform="translate(1206,526)"/>
<path d="M0 0 C2.97 0 5.94 0 9 0 C9 0.99 9 1.98 9 3 C7.02 3 5.04 3 3 3 C3 3.99 3 4.98 3 6 C4.65 6 6.3 6 8 6 C8 6.99 8 7.98 8 9 C6.35 9 4.7 9 3 9 C3 9.99 3 10.98 3 12 C4.98 12 6.96 12 9 12 C9 12.99 9 13.98 9 15 C6.03 15 3.06 15 0 15 C0 10.05 0 5.1 0 0 Z " fill="#070707" transform="translate(1141,526)"/>
<path d="M0 0 C2.97 0 5.94 0 9 0 C9 0.99 9 1.98 9 3 C7.02 3 5.04 3 3 3 C3 3.99 3 4.98 3 6 C4.65 6 6.3 6 8 6 C8 6.99 8 7.98 8 9 C6.35 9 4.7 9 3 9 C3 9.99 3 10.98 3 12 C4.98 12 6.96 12 9 12 C9 12.99 9 13.98 9 15 C6.03 15 3.06 15 0 15 C0 10.05 0 5.1 0 0 Z " fill="#070707" transform="translate(809,526)"/>
<path d="M0 0 C1.32 0 2.64 0 4 0 C5.32 2.64 6.64 5.28 8 8 C8.99 5.36 9.98 2.72 11 0 C12.32 0.33 13.64 0.66 15 1 C14.26950918 3.15255287 13.5149728 5.29695864 12.75 7.4375 C12.33234375 8.63246094 11.9146875 9.82742188 11.484375 11.05859375 C10.99453125 12.02925781 10.5046875 12.99992188 10 14 C8.68 14.33 7.36 14.66 6 15 C4.02 10.05 2.04 5.1 0 0 Z " fill="#131313" transform="translate(1170,526)"/>
<path d="M0 0 C1.32 0 2.64 0 4 0 C5.32 2.64 6.64 5.28 8 8 C8.99 5.36 9.98 2.72 11 0 C12.32 0.33 13.64 0.66 15 1 C14.26950918 3.15255287 13.5149728 5.29695864 12.75 7.4375 C12.33234375 8.63246094 11.9146875 9.82742188 11.484375 11.05859375 C10.99453125 12.02925781 10.5046875 12.99992188 10 14 C8.68 14.33 7.36 14.66 6 15 C4.02 10.05 2.04 5.1 0 0 Z " fill="#131313" transform="translate(786,526)"/>
<path d="M0 0 C1.65 0 3.3 0 5 0 C5.33 1.98 5.66 3.96 6 6 C5.01 6 4.02 6 3 6 C2.34 8.97 1.68 11.94 1 15 C0.01 15 -0.98 15 -2 15 C-2.22577402 9.5814234 -1.46670113 5.22512279 0 0 Z " fill="#111111" transform="translate(738,526)"/>
<path d="M0 0 C4.55555556 0.55555556 4.55555556 0.55555556 6 2 C6.1875 4.4375 6.1875 4.4375 6 7 C5.34 7.66 4.68 8.32 4 9 C-0.55555556 8.44444444 -0.55555556 8.44444444 -2 7 C-2.1875 4.5625 -2.1875 4.5625 -2 2 C-1.34 1.34 -0.68 0.68 0 0 Z " fill="#EFEFEF" transform="translate(769,529)"/>
<path d="M0 0 C0.99 0 1.98 0 3 0 C2.85816304 1.75032844 2.71136571 3.50025534 2.5625 5.25 C2.48128906 6.22453125 2.40007812 7.1990625 2.31640625 8.203125 C2.04925416 10.56461753 1.64628032 12.71901065 1 15 C-0.65 14.67 -2.3 14.34 -4 14 C-4 12.68 -4 11.36 -4 10 C-3.01 10 -2.02 10 -1 10 C-1.01160156 9.36191406 -1.02320313 8.72382812 -1.03515625 8.06640625 C-1.04869141 6.82697266 -1.04869141 6.82697266 -1.0625 5.5625 C-1.07410156 4.73878906 -1.08570313 3.91507813 -1.09765625 3.06640625 C-1 1 -1 1 0 0 Z " fill="#101010" transform="translate(1239,526)"/>
<path d="M0 0 C1.32 0 2.64 0 4 0 C4 4.95 4 9.9 4 15 C2.68 15 1.36 15 0 15 C0 10.05 0 5.1 0 0 Z " fill="#2B2B2B" transform="translate(1193,526)"/>
<path d="M0 0 C0.99 0.33 1.98 0.66 3 1 C2.67 2.32 2.34 3.64 2 5 C1.67 5 1.34 5 1 5 C0.34 6.98 -0.32 8.96 -1 11 C-2.32 11 -3.64 11 -5 11 C-5.33 8.36 -5.66 5.72 -6 3 C-6.66 3 -7.32 3 -8 3 C-7.67 2.34 -7.34 1.68 -7 1 C-5.68 1.66 -4.36 2.32 -3 3 C-2.01 2.01 -1.02 1.02 0 0 Z " fill="#1E1E1E" transform="translate(748,530)"/>
<path d="M0 0 C3.875 1.75 3.875 1.75 5 4 C5.039992 5.99960012 5.04346799 8.00047242 5 10 C3.02 10 1.04 10 -1 10 C-1.125 3.375 -1.125 3.375 0 0 Z " fill="#E9E9E9" transform="translate(1056,686)"/>
<path d="M0 0 C1.32 0 2.64 0 4 0 C4.33 2.31 4.66 4.62 5 7 C5.66 7 6.32 7 7 7 C7 7.99 7 8.98 7 10 C5.68 10 4.36 10 3 10 C2.34 8.68 1.68 7.36 1 6 C0.34 6 -0.32 6 -1 6 C-1.042721 4.33388095 -1.04063832 2.66617115 -1 1 C-0.67 0.67 -0.34 0.34 0 0 Z " fill="#1E1E1E" transform="translate(1231,526)"/>
<path d="M0 0 C2.8125 -0.3125 2.8125 -0.3125 6 0 C7.875 2.5 7.875 2.5 9 5 C5.37 5 1.74 5 -2 5 C-1.34 3.35 -0.68 1.7 0 0 Z " fill="#F3F3F3" transform="translate(1206,696)"/>
<path d="M0 0 C0.33 0.99 0.66 1.98 1 3 C0.67 3.66 0.34 4.32 0 5 C1.65 5.33 3.3 5.66 5 6 C5 6.33 5 6.66 5 7 C3.02 7 1.04 7 -1 7 C-1 7.99 -1 8.98 -1 10 C-2.32 10 -3.64 10 -5 10 C-4.55090939 8.51800098 -4.09043436 7.03944764 -3.625 5.5625 C-3.36976562 4.73878906 -3.11453125 3.91507813 -2.8515625 3.06640625 C-2 1 -2 1 0 0 Z " fill="#0F0F0F" transform="translate(1078,531)"/>
<path d="M0 0 C1.32 0.33 2.64 0.66 4 1 C4.6875 3.3125 4.6875 3.3125 5 6 C3.6875 7.8125 3.6875 7.8125 2 9 C1.34 9 0.68 9 0 9 C0 6.03 0 3.06 0 0 Z " fill="#858585" transform="translate(854,411)"/>
<path d="M0 0 C0.33 0.66 0.66 1.32 1 2 C3.12576782 2.46651207 3.12576782 2.46651207 5.5625 2.625 C6.38878906 2.69976563 7.21507812 2.77453125 8.06640625 2.8515625 C8.70449219 2.90054688 9.34257813 2.94953125 10 3 C10 3.99 10 4.98 10 6 C6.7 6 3.4 6 0 6 C0 4.02 0 2.04 0 0 Z " fill="#1C1E1E" transform="translate(1101,638)"/>
<path d="M0 0 C0 1.65 0 3.3 0 5 C-2.97 5 -5.94 5 -9 5 C-9 4.01 -9 3.02 -9 2 C-7.68786298 1.66524067 -6.37527913 1.33223233 -5.0625 1 C-3.96615234 0.7215625 -3.96615234 0.7215625 -2.84765625 0.4375 C-1 0 -1 0 0 0 Z " fill="#101212" transform="translate(1170,639)"/>
<path d="M0 0 C0.33 0 0.66 0 1 0 C1 3.3 1 6.6 1 10 C0.34 8.68 -0.32 7.36 -1 6 C-1.99 6.495 -1.99 6.495 -3 7 C-4.99960012 7.039992 -7.00047242 7.04346799 -9 7 C-9.33 7.99 -9.66 8.98 -10 10 C-10 8.68 -10 7.36 -10 6 C-8.906875 5.690625 -7.81375 5.38125 -6.6875 5.0625 C-4.44592006 4.41662103 -2.2130649 3.7376883 0 3 C0 2.01 0 1.02 0 0 Z " fill="#B8B8B8" transform="translate(1170,634)"/>
<path d="M0 0 C2.97 0.495 2.97 0.495 6 1 C6 1.99 6 2.98 6 4 C3.69 3.67 1.38 3.34 -1 3 C-0.67 2.01 -0.34 1.02 0 0 Z " fill="#0C0C0C" transform="translate(776,459)"/>
<path d="M0 0 C1.65 0.33 3.3 0.66 5 1 C4.67 1.99 4.34 2.98 4 4 C2.68 3.67 1.36 3.34 0 3 C0 2.01 0 1.02 0 0 Z " fill="#7D7D7D" transform="translate(775,468)"/>
<path d="M0 0 C0.33 0.99 0.66 1.98 1 3 C-1.31 3.33 -3.62 3.66 -6 4 C-6.33 3.01 -6.66 2.02 -7 1 C-4.69 1.33 -2.38 1.66 0 2 C0 1.34 0 0.68 0 0 Z " fill="#6B6B6B" transform="translate(782,461)"/>
</svg>
